<?xml version="1.0" encoding="UTF-8"?>
<!DOCTYPE svg
  PUBLIC '-//W3C//DTD SVG 1.1//EN'
  'http://www.w3.org/Graphics/SVG/1.1/DTD/svg11.dtd'>
<svg version="1.1" xmlns="http://www.w3.org/2000/svg" width="51.000mm" height="23.764mm">
    <!--Autogenerated with python-barcode 0.16.1-->
    <g id="barcode_group">
        <rect width="100%" height="100%" style="fill:white"/>
        <rect x="6.500mm" y="1.000mm" width="0.400mm" height="15.000mm" style="fill:black;"/>
        <rect x="7.300mm" y="1.000mm" width="0.400mm" height="15.000mm" style="fill:black;"/>
        <rect x="8.100mm" y="1.000mm" width="1.200mm" height="15.000mm" style="fill:black;"/>
        <rect x="9.700mm" y="1.000mm" width="0.800mm" height="15.000mm" style="fill:black;"/>
        <rect x="11.700mm" y="1.000mm" width="0.400mm" height="15.000mm" style="fill:black;"/>
        <rect x="12.900mm" y="1.000mm" width="0.400mm" height="15.000mm" style="fill:black;"/>
        <rect x="13.700mm" y="1.000mm" width="0.800mm" height="15.000mm" style="fill:black;"/>
        <rect x="15.300mm" y="1.000mm" width="0.800mm" height="15.000mm" style="fill:black;"/>
        <rect x="16.500mm" y="1.000mm" width="1.200mm" height="15.000mm" style="fill:black;"/>
        <rect x="18.100mm" y="1.000mm" width="0.800mm" height="15.000mm" style="fill:black;"/>
        <rect x="20.500mm" y="1.000mm" width="0.400mm" height="15.000mm" style="fill:black;"/>
        <rect x="21.300mm" y="1.000mm" width="0.400mm" height="15.000mm" style="fill:black;"/>
        <rect x="22.100mm" y="1.000mm" width="0.400mm" height="15.000mm" style="fill:black;"/>
        <rect x="23.700mm" y="1.000mm" width="0.800mm" height="15.000mm" style="fill:black;"/>
        <rect x="24.900mm" y="1.000mm" width="0.400mm" height="15.000mm" style="fill:black;"/>
        <rect x="25.700mm" y="1.000mm" width="0.400mm" height="15.000mm" style="fill:black;"/>
        <rect x="26.500mm" y="1.000mm" width="0.400mm" height="15.000mm" style="fill:black;"/>
        <rect x="28.500mm" y="1.000mm" width="0.400mm" height="15.000mm" style="fill:black;"/>
        <rect x="29.300mm" y="1.000mm" width="0.400mm" height="15.000mm" style="fill:black;"/>
        <rect x="30.100mm" y="1.000mm" width="1.200mm" height="15.000mm" style="fill:black;"/>
        <rect x="32.100mm" y="1.000mm" width="0.800mm" height="15.000mm" style="fill:black;"/>
        <rect x="33.300mm" y="1.000mm" width="0.800mm" height="15.000mm" style="fill:black;"/>
        <rect x="34.900mm" y="1.000mm" width="0.400mm" height="15.000mm" style="fill:black;"/>
        <rect x="36.500mm" y="1.000mm" width="0.400mm" height="15.000mm" style="fill:black;"/>
        <rect x="37.700mm" y="1.000mm" width="1.200mm" height="15.000mm" style="fill:black;"/>
        <rect x="39.700mm" y="1.000mm" width="0.400mm" height="15.000mm" style="fill:black;"/>
        <rect x="40.500mm" y="1.000mm" width="0.400mm" height="15.000mm" style="fill:black;"/>
        <rect x="41.300mm" y="1.000mm" width="1.200mm" height="15.000mm" style="fill:black;"/>
        <rect x="43.300mm" y="1.000mm" width="0.400mm" height="15.000mm" style="fill:black;"/>
        <rect x="44.100mm" y="1.000mm" width="0.400mm" height="15.000mm" style="fill:black;"/>
        <text x="25.500mm" y="21.000mm" style="fill:black;font-size:10pt;text-anchor:middle;">9781764342704</text>
    </g>
</svg>
